<?xml version="1.0" encoding="UTF-8" standalone="no"?>
<svg
   id="Layer_1"
   data-name="Layer 1"
   viewBox="0 0 40.999998 42.87"
   version="1.1"
   sodipodi:docname="SNOWSTORM-logo.svg"
   width="41"
   height="42.869999"
   inkscape:version="1.3.2 (091e20e, 2023-11-25)"
   xmlns:inkscape="http://www.inkscape.org/namespaces/inkscape"
   xmlns:sodipodi="http://sodipodi.sourceforge.net/DTD/sodipodi-0.dtd"
   xmlns="http://www.w3.org/2000/svg"
   xmlns:svg="http://www.w3.org/2000/svg"
   xmlns:rdf="http://www.w3.org/1999/02/22-rdf-syntax-ns#"
   xmlns:cc="http://creativecommons.org/ns#"
   xmlns:dc="http://purl.org/dc/elements/1.1/">
  <sodipodi:namedview
     id="namedview36"
     pagecolor="#ffffff"
     bordercolor="#000000"
     borderopacity="0.25"
     inkscape:showpageshadow="2"
     inkscape:pageopacity="0.0"
     inkscape:pagecheckerboard="0"
     inkscape:deskcolor="#d1d1d1"
     inkscape:zoom="5.2097131"
     inkscape:cx="63.055296"
     inkscape:cy="18.427118"
     inkscape:window-width="1312"
     inkscape:window-height="449"
     inkscape:window-x="3183"
     inkscape:window-y="457"
     inkscape:window-maximized="0"
     inkscape:current-layer="Layer_1" />
  <defs
     id="defs1">
    <style
       id="style1">.cls-1{fill:#35404b;}.cls-2{fill:#00b5ef;}.cls-3{fill:#bdecfb;}.cls-4{fill:#949aa0;}</style>
  </defs>
  <title
     id="title1">snowstorm</title>
  <path
     class="cls-1"
     d="m 1.53,21.28 19,-9.71 18.94,9.71 A 2.67,2.67 0 0 1 41,23.64 V 18.93 A 2.69,2.69 0 0 0 39.42,16.57 L 20.48,6.87 1.53,16.57 A 2.69,2.69 0 0 0 0,18.93 v 4.71 a 2.67,2.67 0 0 1 1.53,-2.36 z"
     id="path1" />
  <path
     class="cls-1"
     d="m 1.53,28.14 19,-9.71 18.94,9.71 A 2.69,2.69 0 0 1 41,30.5 V 25.8 A 2.67,2.67 0 0 0 39.47,23.44 L 20.48,13.73 1.53,23.44 A 2.67,2.67 0 0 0 0,25.8 v 4.7 a 2.69,2.69 0 0 1 1.53,-2.36 z"
     id="path2" />
  <path
     class="cls-2"
     d="M 39.42,28.46 20.48,38.16 1.53,28.46 A 2.69,2.69 0 0 1 0,26.1 v 4.7 a 2.69,2.69 0 0 0 1.53,2.36 l 19,9.71 18.94,-9.71 A 2.69,2.69 0 0 0 41,30.8 v -4.7 a 2.69,2.69 0 0 1 -1.58,2.36 z"
     id="path3" />
  <path
     class="cls-2"
     d="M 39.42,21.63 20.48,31.34 1.53,21.63 A 2.67,2.67 0 0 1 0,19.27 v 4.71 a 2.69,2.69 0 0 0 1.53,2.36 l 19,9.7 18.94,-9.7 A 2.69,2.69 0 0 0 41,23.98 v -4.71 a 2.67,2.67 0 0 1 -1.58,2.36 z"
     id="path4" />
  <path
     class="cls-1"
     d="m 1.53,14.41 19,-9.7 18.94,9.7 A 2.69,2.69 0 0 1 41,16.77 v -4.7 A 2.69,2.69 0 0 0 39.47,9.71 L 20.48,0 1.53,9.71 A 2.69,2.69 0 0 0 0,12.07 v 4.7 a 2.69,2.69 0 0 1 1.53,-2.36 z"
     id="path5" />
  <path
     class="cls-2"
     d="M 39.42,14.81 20.48,24.57 1.53,14.81 A 2.69,2.69 0 0 1 0,12.45 v 4.7 a 2.68,2.68 0 0 0 1.53,2.36 l 19,9.71 18.94,-9.71 A 2.68,2.68 0 0 0 41,17.15 v -4.7 a 2.69,2.69 0 0 1 -1.58,2.36 z"
     id="path6" />
  <metadata
     id="metadata44">
    <rdf:RDF>
      <cc:Work
         rdf:about="">
        <dc:title>snowstorm</dc:title>
      </cc:Work>
    </rdf:RDF>
  </metadata>
</svg>
