<svg version="1.1" id="Layer_1" xmlns="http://www.w3.org/2000/svg" xmlns:xlink="http://www.w3.org/1999/xlink" x="0px" y="0px" viewBox="0 0 800 800" style="enable-background:new 0 0 512 512;" xml:space="preserve" width="800" height="800">
  <g>
    <g>
      <g>
        <!-- Red background filling the area between the two paths -->
        <path d="M739.391 298.795h-95.056l67.217 -67.214c23.627 -23.63 23.627 -62.08 0 -85.714L654.134 88.453c-23.633 -23.627 -62.08 -23.627 -85.713 0l-67.214 67.217V60.611c0 -33.419 -27.191 -60.609 -60.609 -60.609h-81.197c-33.42 0 -60.609 27.191 -60.609 60.609v95.056L231.578 88.45c-23.633 -23.627 -62.083 -23.627 -85.714 0L88.448 145.867c-23.689 23.691 -23.686 62.023 0 85.713l67.214 67.214H60.609C27.187 298.792 0 325.983 0 359.402v81.197c0 33.419 27.187 60.609 60.609 60.609h95.056L88.452 568.422c-23.689 23.691 -23.689 62.023 0 85.714l57.414 57.414c23.633 23.63 62.083 23.63 85.714 0l67.214 -67.217v95.056c0 33.419 27.187 60.609 60.609 60.609h81.197c33.419 0 60.609 -27.191 60.609 -60.609v-95.056l67.214 67.217c23.633 23.63 62.083 23.623 85.714 0l57.414 -57.414c23.63 -23.633 23.63 -62.083 0 -85.714l-67.217 -67.214h95.056c33.419 0 60.609 -27.191 60.609 -60.609v-81.197c0 -33.416 -27.187 -60.606 -60.609 -60.606zm20.203 141.806c0 11.141 -9.063 20.203 -20.203 20.203h-143.831c-17.927 0 -27.002 21.769 -14.287 34.491l101.705 101.705c7.88 7.877 7.88 20.694 0 28.567l-57.414 57.414c-7.881 7.877 -20.702 7.877 -28.57 0l-101.705 -101.705c-12.68 -12.673 -34.491 -3.702 -34.491 14.287v143.831c0 11.141 -9.061 20.203 -20.203 20.203h-81.197c-11.141 0 -20.203 -9.061 -20.203 -20.203v-143.831c0 -18.075 -21.875 -26.9 -34.487 -14.287l-101.702 101.705c-7.877 7.881 -20.694 7.88 -28.572 0l-57.411 -57.414c-7.895 -7.892 -7.895 -20.675 0 -28.567l101.702 -101.705c12.673 -12.677 3.703 -34.491 -14.284 -34.491H60.609c-11.141 0 -20.203 -9.061 -20.203 -20.203v-81.197c0 -11.141 9.061 -20.203 20.203 -20.203h143.831c17.93 0 27.005 -21.769 14.284 -34.491l-101.705 -101.705c-7.895 -7.892 -7.895 -20.675 0 -28.567l57.414 -57.417c7.88 -7.88 20.695 -7.877 28.572 0l101.702 101.705c12.725 12.728 34.487 3.628 34.487 -14.287v-143.828c0 -11.141 9.061 -20.203 20.203 -20.203h81.197c11.141 0 20.203 9.061 20.203 20.203v143.831c0 17.934 21.769 27.002 34.491 14.287l101.705 -101.705c7.873 -7.873 20.691 -7.88 28.567 0l57.414 57.414c7.877 7.88 7.88 20.695 0 28.57l-101.705 101.705c-12.673 12.68 -3.702 34.491 14.287 34.491h143.831c11.141 0 20.203 9.061 20.203 20.203v81.194z" style="fill: green" />

        <!-- Red background filling the area between the two paths -->
        <path d="M739.391 298.795h-95.056l67.217 -67.214c23.627 -23.63 23.627 -62.08 0 -85.714L654.134 88.453c-23.633 -23.627 -62.08 -23.627 -85.713 0l-67.214 67.217V60.611c0 -33.419 -27.191 -60.609 -60.609 -60.609h-81.197c-33.42 0 -60.609 27.191 -60.609 60.609v95.056L231.578 88.45c-23.633 -23.627 -62.083 -23.627 -85.714 0L88.448 145.867c-23.689 23.691 -23.686 62.023 0 85.713l67.214 67.214H60.609C27.187 298.792 0 325.983 0 359.402v81.197c0 33.419 27.187 60.609 60.609 60.609h95.056L88.452 568.422c-23.689 23.691 -23.689 62.023 0 85.714l57.414 57.414c23.633 23.63 62.083 23.63 85.714 0l67.214 -67.217v95.056c0 33.419 27.187 60.609 60.609 60.609h81.197c33.419 0 60.609 -27.191 60.609 -60.609v-95.056l67.214 67.217c23.633 23.63 62.083 23.623 85.714 0l57.414 -57.414c23.63 -23.633 23.63 -62.083 0 -85.714l-67.217 -67.214h95.056c33.419 0 60.609 -27.191 60.609 -60.609v-81.197c0 -33.416 -27.187 -60.606 -60.609 -60.606z" style="fill: green; opacity: 0.7;"/>

        <path d="M507.122 357.561h-52.383a12.298 12.298 0 0 1 -12.3 -12.3v-52.383a12.298 12.298 0 0 0 -12.3 -12.3h-60.278a12.298 12.298 0 0 0 -12.3 12.3v52.383a12.302 12.302 0 0 1 -12.3 12.3h-52.383a12.298 12.298 0 0 0 -12.3 12.3v60.28a12.302 12.302 0 0 0 12.3 12.3h52.383a12.298 12.298 0 0 1 12.3 12.3v52.383a12.298 12.298 0 0 0 12.3 12.3h60.278a12.297 12.297 0 0 0 12.3 -12.3v-52.383a12.298 12.298 0 0 1 12.3 -12.3h52.383a12.3 12.3 0 0 0 12.302 -12.3v-60.28a12.3 12.3 0 0 0 -12.302 -12.3z" style="fill: rgb(120, 169, 188);" />
      </g>
    </g>
  </g>
</svg>
